<svg width="190" height="190" viewBox="0 0 190 190" fill="none" xmlns="http://www.w3.org/2000/svg">
<path d="M190 95C190 147.467 147.467 190 95 190C42.5329 190 0 147.467 0 95C0 42.5329 42.5329 0 95 0C147.467 0 190 42.5329 190 95ZM13.3 95C13.3 140.122 49.8783 176.7 95 176.7C140.122 176.7 176.7 140.122 176.7 95C176.7 49.8783 140.122 13.3 95 13.3C49.8783 13.3 13.3 49.8783 13.3 95Z" fill="#D9D9D9"/>
<path d="M184.987 125.453C192.743 102.534 191.462 77.52 181.405 55.5137C171.348 33.5073 153.274 16.1674 130.869 7.03191C108.465 -2.10361 83.419 -2.34628 60.8418 6.35342C38.2645 15.0531 19.8575 32.0396 9.37626 53.8469L23.0761 60.4314C31.8803 42.1132 47.3422 27.8446 66.3071 20.5369C85.272 13.2291 106.311 13.433 125.13 21.1068C143.95 28.7806 159.133 43.3462 167.58 61.8315C176.028 80.3168 177.104 101.329 170.589 120.58L184.987 125.453Z" fill="#19A01E"/>
<path d="M38.8551 171.634C51.0635 180.578 65.2321 186.476 80.1811 188.837C95.13 191.198 110.427 189.953 124.797 185.206C139.168 180.459 152.196 172.348 162.798 161.547C173.399 150.746 181.267 137.569 185.745 123.113L171.226 118.615C167.464 130.758 160.855 141.827 151.95 150.899C143.045 159.972 132.101 166.786 120.03 170.773C107.958 174.76 95.1092 175.806 82.5521 173.823C69.995 171.84 58.0933 166.886 47.8383 159.372L38.8551 171.634Z" fill="#00DB4A"/>
<path d="M0.0542698 91.7893C-0.498907 108.148 3.18388 124.372 10.7456 138.888C18.3073 153.405 29.4914 165.722 43.2136 174.644L51.4994 161.901C39.9728 154.406 30.5781 144.06 24.2263 131.866C17.8745 119.672 14.7809 106.044 15.2456 92.303L0.0542698 91.7893Z" fill="#FB8B34"/>
<path d="M10.3174 51.9436C3.5622 65.2296 0.0279084 79.9186 0.000164582 94.8232L15.2001 94.8515C15.2234 82.3316 18.1923 69.9929 23.8666 58.8327L10.3174 51.9436Z" fill="#ED1C24"/>
<path d="M78.0977 71.3535V97H73.0352V77.1895L66.9531 79.123V75.1328L77.5527 71.3535H78.0977ZM104.038 93.0449V97H86.5297V93.625L94.809 84.748C95.641 83.8223 96.2973 83.0078 96.7777 82.3047C97.2582 81.5898 97.6039 80.9512 97.8148 80.3887C98.0375 79.8145 98.1488 79.2695 98.1488 78.7539C98.1488 77.9805 98.0199 77.3184 97.7621 76.7676C97.5043 76.2051 97.1234 75.7715 96.6195 75.4668C96.1273 75.1621 95.518 75.0098 94.7914 75.0098C94.018 75.0098 93.35 75.1973 92.7875 75.5723C92.2367 75.9473 91.8148 76.4688 91.5219 77.1367C91.2406 77.8047 91.1 78.5605 91.1 79.4043H86.0199C86.0199 77.8809 86.3832 76.4863 87.1098 75.2207C87.8363 73.9434 88.8617 72.9297 90.1859 72.1797C91.5102 71.418 93.0805 71.0371 94.8969 71.0371C96.6898 71.0371 98.2016 71.3301 99.432 71.916C100.674 72.4902 101.612 73.3223 102.245 74.4121C102.889 75.4902 103.211 76.7793 103.211 78.2793C103.211 79.123 103.077 79.9492 102.807 80.7578C102.538 81.5547 102.151 82.3516 101.647 83.1484C101.155 83.9336 100.557 84.7305 99.8539 85.5391C99.1508 86.3477 98.3715 87.1855 97.516 88.0527L93.0688 93.0449H104.038ZM125.231 87.4375V91.4102H106.792L106.546 88.334L117.216 71.4062H121.241L116.882 78.7012L111.573 87.4375H125.231ZM122.331 71.4062V97H117.268V71.4062H122.331Z" fill="black"/>
<path d="M71.1875 119.383H72.6875C72.6094 120.102 72.4036 120.745 72.0703 121.312C71.737 121.88 71.2656 122.331 70.6562 122.664C70.0469 122.992 69.2865 123.156 68.375 123.156C67.7083 123.156 67.1016 123.031 66.5547 122.781C66.013 122.531 65.5469 122.177 65.1562 121.719C64.7656 121.255 64.4635 120.701 64.25 120.055C64.0417 119.404 63.9375 118.68 63.9375 117.883V116.75C63.9375 115.953 64.0417 115.232 64.25 114.586C64.4635 113.935 64.7682 113.378 65.1641 112.914C65.5651 112.451 66.0469 112.094 66.6094 111.844C67.1719 111.594 67.8047 111.469 68.5078 111.469C69.3672 111.469 70.0938 111.63 70.6875 111.953C71.2812 112.276 71.7422 112.724 72.0703 113.297C72.4036 113.865 72.6094 114.523 72.6875 115.273H71.1875C71.1146 114.742 70.9792 114.286 70.7812 113.906C70.5833 113.521 70.3021 113.224 69.9375 113.016C69.5729 112.807 69.0964 112.703 68.5078 112.703C68.0026 112.703 67.5573 112.799 67.1719 112.992C66.7917 113.185 66.4714 113.458 66.2109 113.812C65.9557 114.167 65.763 114.591 65.6328 115.086C65.5026 115.581 65.4375 116.13 65.4375 116.734V117.883C65.4375 118.44 65.4948 118.964 65.6094 119.453C65.7292 119.943 65.9089 120.372 66.1484 120.742C66.388 121.112 66.6927 121.404 67.0625 121.617C67.4323 121.826 67.8698 121.93 68.375 121.93C69.0156 121.93 69.526 121.828 69.9062 121.625C70.2865 121.422 70.5729 121.13 70.7656 120.75C70.9635 120.37 71.1042 119.914 71.1875 119.383ZM79.6078 121.555V117.203C79.6078 116.87 79.5401 116.581 79.4047 116.336C79.2745 116.086 79.0766 115.893 78.8109 115.758C78.5453 115.622 78.2172 115.555 77.8266 115.555C77.462 115.555 77.1417 115.617 76.8656 115.742C76.5948 115.867 76.3813 116.031 76.225 116.234C76.074 116.438 75.9984 116.656 75.9984 116.891H74.5531C74.5531 116.589 74.6313 116.289 74.7875 115.992C74.9438 115.695 75.1677 115.427 75.4594 115.188C75.7563 114.943 76.1104 114.75 76.5219 114.609C76.9385 114.464 77.4021 114.391 77.9125 114.391C78.5271 114.391 79.0688 114.495 79.5375 114.703C80.0115 114.911 80.3813 115.227 80.6469 115.648C80.9177 116.065 81.0531 116.589 81.0531 117.219V121.156C81.0531 121.438 81.0766 121.737 81.1234 122.055C81.1755 122.372 81.251 122.646 81.35 122.875V123H79.8422C79.7693 122.833 79.712 122.612 79.6703 122.336C79.6286 122.055 79.6078 121.794 79.6078 121.555ZM79.8578 117.875L79.8734 118.891H78.4125C78.001 118.891 77.6339 118.924 77.3109 118.992C76.988 119.055 76.7172 119.151 76.4984 119.281C76.2797 119.411 76.113 119.576 75.9984 119.773C75.8839 119.966 75.8266 120.193 75.8266 120.453C75.8266 120.719 75.8865 120.961 76.0063 121.18C76.126 121.398 76.3057 121.573 76.5453 121.703C76.7901 121.828 77.0896 121.891 77.4438 121.891C77.8865 121.891 78.2771 121.797 78.6156 121.609C78.9542 121.422 79.2224 121.193 79.4203 120.922C79.6234 120.651 79.7328 120.388 79.7484 120.133L80.3656 120.828C80.3292 121.047 80.2302 121.289 80.0688 121.555C79.9073 121.82 79.6911 122.076 79.4203 122.32C79.1547 122.56 78.837 122.76 78.4672 122.922C78.1026 123.078 77.6911 123.156 77.2328 123.156C76.6599 123.156 76.1573 123.044 75.725 122.82C75.2979 122.596 74.9646 122.297 74.725 121.922C74.4906 121.542 74.3734 121.117 74.3734 120.648C74.3734 120.195 74.462 119.797 74.6391 119.453C74.8161 119.104 75.0714 118.815 75.4047 118.586C75.738 118.352 76.1391 118.174 76.6078 118.055C77.0766 117.935 77.6 117.875 78.1781 117.875H79.8578ZM84.8641 116.227V123H83.4109V114.547H84.7859L84.8641 116.227ZM84.5672 118.453L83.8953 118.43C83.9005 117.852 83.976 117.318 84.1219 116.828C84.2677 116.333 84.4839 115.904 84.7703 115.539C85.0568 115.174 85.4135 114.893 85.8406 114.695C86.2677 114.492 86.7625 114.391 87.325 114.391C87.7208 114.391 88.0854 114.448 88.4188 114.562C88.7521 114.672 89.0411 114.846 89.2859 115.086C89.5307 115.326 89.7208 115.633 89.8563 116.008C89.9917 116.383 90.0594 116.836 90.0594 117.367V123H88.6141V117.438C88.6141 116.995 88.5385 116.641 88.3875 116.375C88.2417 116.109 88.0333 115.917 87.7625 115.797C87.4917 115.672 87.174 115.609 86.8094 115.609C86.3823 115.609 86.0255 115.685 85.7391 115.836C85.4526 115.987 85.2234 116.195 85.0516 116.461C84.8797 116.727 84.7547 117.031 84.6766 117.375C84.6036 117.714 84.5672 118.073 84.5672 118.453ZM90.0438 117.656L89.075 117.953C89.0802 117.49 89.1557 117.044 89.3016 116.617C89.4526 116.19 89.6688 115.81 89.95 115.477C90.2365 115.143 90.588 114.88 91.0047 114.688C91.4214 114.49 91.8979 114.391 92.4344 114.391C92.8875 114.391 93.2885 114.451 93.6375 114.57C93.9917 114.69 94.2885 114.875 94.5281 115.125C94.7729 115.37 94.9578 115.685 95.0828 116.07C95.2078 116.456 95.2703 116.914 95.2703 117.445V123H93.8172V117.43C93.8172 116.956 93.7417 116.589 93.5906 116.328C93.4448 116.062 93.2365 115.878 92.9656 115.773C92.7 115.664 92.3823 115.609 92.0125 115.609C91.6948 115.609 91.4135 115.664 91.1688 115.773C90.924 115.883 90.7182 116.034 90.5516 116.227C90.3849 116.414 90.2573 116.63 90.1688 116.875C90.0854 117.12 90.0438 117.38 90.0438 117.656ZM101.066 123.156C100.477 123.156 99.9432 123.057 99.4641 122.859C98.9901 122.656 98.5812 122.372 98.2375 122.008C97.899 121.643 97.6385 121.211 97.4562 120.711C97.274 120.211 97.1828 119.664 97.1828 119.07V118.742C97.1828 118.055 97.2844 117.443 97.4875 116.906C97.6906 116.365 97.9667 115.906 98.3156 115.531C98.6646 115.156 99.0604 114.872 99.5031 114.68C99.9458 114.487 100.404 114.391 100.878 114.391C101.482 114.391 102.003 114.495 102.441 114.703C102.883 114.911 103.245 115.203 103.527 115.578C103.808 115.948 104.016 116.385 104.152 116.891C104.287 117.391 104.355 117.938 104.355 118.531V119.18H98.0422V118H102.909V117.891C102.889 117.516 102.81 117.151 102.675 116.797C102.545 116.443 102.336 116.151 102.05 115.922C101.764 115.693 101.373 115.578 100.878 115.578C100.55 115.578 100.248 115.648 99.9719 115.789C99.6958 115.924 99.4589 116.128 99.2609 116.398C99.063 116.669 98.9094 117 98.8 117.391C98.6906 117.781 98.6359 118.232 98.6359 118.742V119.07C98.6359 119.471 98.6906 119.849 98.8 120.203C98.9146 120.552 99.0786 120.859 99.2922 121.125C99.5109 121.391 99.774 121.599 100.081 121.75C100.394 121.901 100.748 121.977 101.144 121.977C101.654 121.977 102.086 121.872 102.441 121.664C102.795 121.456 103.105 121.177 103.37 120.828L104.245 121.523C104.063 121.799 103.831 122.062 103.55 122.312C103.269 122.562 102.922 122.766 102.511 122.922C102.105 123.078 101.623 123.156 101.066 123.156ZM107.588 115.875V123H106.142V114.547H107.548L107.588 115.875ZM110.228 114.5L110.22 115.844C110.101 115.818 109.986 115.802 109.877 115.797C109.772 115.786 109.653 115.781 109.517 115.781C109.184 115.781 108.89 115.833 108.634 115.938C108.379 116.042 108.163 116.188 107.986 116.375C107.809 116.562 107.668 116.786 107.564 117.047C107.465 117.302 107.4 117.583 107.369 117.891L106.963 118.125C106.963 117.615 107.012 117.135 107.111 116.688C107.215 116.24 107.374 115.844 107.588 115.5C107.801 115.151 108.072 114.88 108.4 114.688C108.733 114.49 109.129 114.391 109.588 114.391C109.692 114.391 109.811 114.404 109.947 114.43C110.082 114.451 110.176 114.474 110.228 114.5ZM116.336 121.555V117.203C116.336 116.87 116.268 116.581 116.133 116.336C116.003 116.086 115.805 115.893 115.539 115.758C115.273 115.622 114.945 115.555 114.555 115.555C114.19 115.555 113.87 115.617 113.594 115.742C113.323 115.867 113.109 116.031 112.953 116.234C112.802 116.438 112.727 116.656 112.727 116.891H111.281C111.281 116.589 111.359 116.289 111.516 115.992C111.672 115.695 111.896 115.427 112.188 115.188C112.484 114.943 112.839 114.75 113.25 114.609C113.667 114.464 114.13 114.391 114.641 114.391C115.255 114.391 115.797 114.495 116.266 114.703C116.74 114.911 117.109 115.227 117.375 115.648C117.646 116.065 117.781 116.589 117.781 117.219V121.156C117.781 121.438 117.805 121.737 117.852 122.055C117.904 122.372 117.979 122.646 118.078 122.875V123H116.57C116.497 122.833 116.44 122.612 116.398 122.336C116.357 122.055 116.336 121.794 116.336 121.555ZM116.586 117.875L116.602 118.891H115.141C114.729 118.891 114.362 118.924 114.039 118.992C113.716 119.055 113.445 119.151 113.227 119.281C113.008 119.411 112.841 119.576 112.727 119.773C112.612 119.966 112.555 120.193 112.555 120.453C112.555 120.719 112.615 120.961 112.734 121.18C112.854 121.398 113.034 121.573 113.273 121.703C113.518 121.828 113.818 121.891 114.172 121.891C114.615 121.891 115.005 121.797 115.344 121.609C115.682 121.422 115.951 121.193 116.148 120.922C116.352 120.651 116.461 120.388 116.477 120.133L117.094 120.828C117.057 121.047 116.958 121.289 116.797 121.555C116.635 121.82 116.419 122.076 116.148 122.32C115.883 122.56 115.565 122.76 115.195 122.922C114.831 123.078 114.419 123.156 113.961 123.156C113.388 123.156 112.885 123.044 112.453 122.82C112.026 122.596 111.693 122.297 111.453 121.922C111.219 121.542 111.102 121.117 111.102 120.648C111.102 120.195 111.19 119.797 111.367 119.453C111.544 119.104 111.799 118.815 112.133 118.586C112.466 118.352 112.867 118.174 113.336 118.055C113.805 117.935 114.328 117.875 114.906 117.875H116.586ZM125.077 120.758C125.077 120.549 125.03 120.357 124.936 120.18C124.847 119.997 124.662 119.833 124.381 119.688C124.105 119.536 123.689 119.406 123.131 119.297C122.662 119.198 122.238 119.081 121.858 118.945C121.483 118.81 121.162 118.646 120.897 118.453C120.636 118.26 120.436 118.034 120.295 117.773C120.155 117.513 120.084 117.208 120.084 116.859C120.084 116.526 120.157 116.211 120.303 115.914C120.454 115.617 120.665 115.354 120.936 115.125C121.212 114.896 121.543 114.716 121.928 114.586C122.314 114.456 122.743 114.391 123.217 114.391C123.894 114.391 124.472 114.51 124.952 114.75C125.431 114.99 125.798 115.31 126.053 115.711C126.308 116.107 126.436 116.547 126.436 117.031H124.991C124.991 116.797 124.92 116.57 124.78 116.352C124.644 116.128 124.444 115.943 124.178 115.797C123.918 115.651 123.597 115.578 123.217 115.578C122.816 115.578 122.491 115.641 122.241 115.766C121.996 115.885 121.816 116.039 121.702 116.227C121.592 116.414 121.537 116.612 121.537 116.82C121.537 116.977 121.564 117.117 121.616 117.242C121.673 117.362 121.772 117.474 121.912 117.578C122.053 117.677 122.251 117.771 122.506 117.859C122.761 117.948 123.087 118.036 123.483 118.125C124.176 118.281 124.746 118.469 125.194 118.688C125.642 118.906 125.975 119.174 126.194 119.492C126.412 119.81 126.522 120.195 126.522 120.648C126.522 121.018 126.444 121.357 126.287 121.664C126.136 121.971 125.915 122.237 125.623 122.461C125.337 122.68 124.993 122.852 124.592 122.977C124.196 123.096 123.751 123.156 123.256 123.156C122.511 123.156 121.881 123.023 121.366 122.758C120.85 122.492 120.459 122.148 120.194 121.727C119.928 121.305 119.795 120.859 119.795 120.391H121.248C121.269 120.786 121.384 121.102 121.592 121.336C121.801 121.565 122.056 121.729 122.358 121.828C122.66 121.922 122.959 121.969 123.256 121.969C123.652 121.969 123.983 121.917 124.248 121.812C124.519 121.708 124.725 121.565 124.866 121.383C125.006 121.201 125.077 120.992 125.077 120.758Z" fill="black"/>
</svg>
